<svg xmlns="http://www.w3.org/2000/svg" width="1164.66748046875" height="829.97705078125" viewBox="-609.5706176757812 -408.42822265625 1164.66748046875 829.97705078125"><title>Neo4j Graph Visualization</title><desc>Created using Neo4j (http://www.neo4j.com/)</desc><g class="layer relationships"><g class="relationship" transform="translate(139.72723898267873 229.1080582137244) rotate(490.4381774808413)"><path class="b-outline" fill="#A5ABB6" stroke="none" d="M 25 0.5 L 74.27028232294403 0.5 L 74.27028232294403 -0.5 L 25 -0.5 Z M 107.83278232294403 0.5 L 157.10306464588805 0.5 L 157.10306464588805 3.5 L 164.10306464588805 0 L 157.10306464588805 -3.5 L 157.10306464588805 -0.5 L 107.83278232294403 -0.5 Z"/><text text-anchor="middle" pointer-events="none" font-size="8px" fill="#000000" x="91.05153232294403" y="3" transform="rotate(180 91.05153232294403 0)" font-family="Helvetica Neue, Helvetica, Arial, sans-serif">READS</text></g><g class="relationship" transform="translate(139.72723898267873 229.1080582137244) rotate(421.7362787561601)"><path class="b-outline" fill="#A5ABB6" stroke="none" d="M 25 0.5 L 46.73995963756636 0.5 L 46.73995963756636 -0.5 L 25 -0.5 Z M 80.30245963756636 0.5 L 102.04241927513272 0.5 L 102.04241927513272 3.5 L 109.04241927513272 0 L 102.04241927513272 -3.5 L 102.04241927513272 -0.5 L 80.30245963756636 -0.5 Z"/><text text-anchor="middle" pointer-events="none" font-size="8px" fill="#000000" x="63.52120963756636" y="3" font-family="Helvetica Neue, Helvetica, Arial, sans-serif">READS</text></g><g class="relationship" transform="translate(139.72723898267873 229.1080582137244) rotate(458.73326326572396)"><path class="b-outline" fill="#A5ABB6" stroke="none" d="M 25 0.5 L 62.39771441261142 0.5 L 62.39771441261142 -0.5 L 25 -0.5 Z M 95.96021441261142 0.5 L 133.35792882522284 0.5 L 133.35792882522284 3.5 L 140.35792882522284 0 L 133.35792882522284 -3.5 L 133.35792882522284 -0.5 L 95.96021441261142 -0.5 Z"/><text text-anchor="middle" pointer-events="none" font-size="8px" fill="#000000" x="79.17896441261142" y="3" transform="rotate(180 79.17896441261142 0)" font-family="Helvetica Neue, Helvetica, Arial, sans-serif">READS</text></g><g class="relationship" transform="translate(366.5980661643808 79.35089340303153) rotate(406.2857730458548)"><path class="b-outline" fill="#A5ABB6" stroke="none" d="M 25 0.5 L 53.551028050924245 0.5 L 53.551028050924245 -0.5 L 25 -0.5 Z M 87.11352805092424 0.5 L 115.66455610184849 0.5 L 115.66455610184849 3.5 L 122.66455610184849 0 L 115.66455610184849 -3.5 L 115.66455610184849 -0.5 L 87.11352805092424 -0.5 Z"/><text text-anchor="middle" pointer-events="none" font-size="8px" fill="#000000" x="70.33227805092424" y="3" font-family="Helvetica Neue, Helvetica, Arial, sans-serif">READS</text></g><g class="relationship" transform="translate(382.0657031657419 -224.07934571604676) rotate(415.63835683674523)"><path class="b-outline" fill="#A5ABB6" stroke="none" d="M 25 0.5 L 52.31387426226094 0.5 L 52.31387426226094 -0.5 L 25 -0.5 Z M 85.87637426226094 0.5 L 113.19024852452188 0.5 L 113.19024852452188 3.5 L 120.19024852452188 0 L 113.19024852452188 -3.5 L 113.19024852452188 -0.5 L 85.87637426226094 -0.5 Z"/><text text-anchor="middle" pointer-events="none" font-size="8px" fill="#000000" x="69.09512426226094" y="3" font-family="Helvetica Neue, Helvetica, Arial, sans-serif">READS</text></g><g class="relationship" transform="translate(382.0657031657419 -224.07934571604676) rotate(356.25221879784135)"><path class="b-outline" fill="#A5ABB6" stroke="none" d="M 25 0.5 L 51.88864913139554 0.5 L 51.88864913139554 -0.5 L 25 -0.5 Z M 85.45114913139554 0.5 L 112.33979826279108 0.5 L 112.33979826279108 3.5 L 119.33979826279108 0 L 112.33979826279108 -3.5 L 112.33979826279108 -0.5 L 85.45114913139554 -0.5 Z"/><text text-anchor="middle" pointer-events="none" font-size="8px" fill="#000000" x="68.66989913139554" y="3" font-family="Helvetica Neue, Helvetica, Arial, sans-serif">READS</text></g><g class="relationship" transform="translate(-192.35870574594907 -100.55985690023054) rotate(345.48601165205)"><path class="b-outline" fill="#A5ABB6" stroke="none" d="M 25 0.5 L 53.21323556264194 0.5 L 53.21323556264194 -0.5 L 25 -0.5 Z M 86.77573556264194 0.5 L 114.98897112528388 0.5 L 114.98897112528388 3.5 L 121.98897112528388 0 L 114.98897112528388 -3.5 L 114.98897112528388 -0.5 L 86.77573556264194 -0.5 Z"/><text text-anchor="middle" pointer-events="none" font-size="8px" fill="#000000" x="69.99448556264194" y="3" font-family="Helvetica Neue, Helvetica, Arial, sans-serif">READS</text></g><g class="relationship" transform="translate(139.72723898267873 229.1080582137244) rotate(322.3093981571224)"><path class="b-outline" fill="#A5ABB6" stroke="none" d="M 25 0.5 L 50.911584652015605 0.5 L 50.911584652015605 -0.5 L 25 -0.5 Z M 84.4740846520156 0.5 L 110.38566930403121 0.5 L 110.38566930403121 3.5 L 117.38566930403121 0 L 110.38566930403121 -3.5 L 110.38566930403121 -0.5 L 84.4740846520156 -0.5 Z"/><text text-anchor="middle" pointer-events="none" font-size="8px" fill="#000000" x="67.6928346520156" y="3" font-family="Helvetica Neue, Helvetica, Arial, sans-serif">READS</text></g><g class="relationship" transform="translate(139.72723898267873 229.1080582137244) rotate(359.5134421932887)"><path class="b-outline" fill="#A5ABB6" stroke="none" d="M 25 0.5 L 61.24603412978897 0.5 L 61.24603412978897 -0.5 L 25 -0.5 Z M 94.80853412978897 0.5 L 131.05456825957793 0.5 L 131.05456825957793 3.5 L 138.05456825957793 0 L 131.05456825957793 -3.5 L 131.05456825957793 -0.5 L 94.80853412978897 -0.5 Z"/><text text-anchor="middle" pointer-events="none" font-size="8px" fill="#000000" x="78.02728412978897" y="3" font-family="Helvetica Neue, Helvetica, Arial, sans-serif">READS</text></g><g class="relationship" transform="translate(139.72723898267873 229.1080582137244) rotate(287.5962984744553)"><path class="b-outline" fill="#A5ABB6" stroke="none" d="M 25 0.5 L 66.84024864737539 0.5 L 66.84024864737539 -0.5 L 25 -0.5 Z M 100.40274864737539 0.5 L 142.24299729475078 0.5 L 142.24299729475078 3.5 L 149.24299729475078 0 L 142.24299729475078 -3.5 L 142.24299729475078 -0.5 L 100.40274864737539 -0.5 Z"/><text text-anchor="middle" pointer-events="none" font-size="8px" fill="#000000" x="83.62149864737539" y="3" font-family="Helvetica Neue, Helvetica, Arial, sans-serif">READS</text></g><g class="relationship" transform="translate(382.0657031657419 -224.07934571604676) rotate(264.68034754324674)"><path class="b-outline" fill="#A5ABB6" stroke="none" d="M 25 0.5 L 51.95645957065645 0.5 L 51.95645957065645 -0.5 L 25 -0.5 Z M 85.51895957065645 0.5 L 112.4754191413129 0.5 L 112.4754191413129 3.5 L 119.4754191413129 0 L 112.4754191413129 -3.5 L 112.4754191413129 -0.5 L 85.51895957065645 -0.5 Z"/><text text-anchor="middle" pointer-events="none" font-size="8px" fill="#000000" x="68.73770957065645" y="3" transform="rotate(180 68.73770957065645 0)" font-family="Helvetica Neue, Helvetica, Arial, sans-serif">READS</text></g><g class="relationship" transform="translate(382.0657031657419 -224.07934571604676) rotate(208.8679145664742)"><path class="b-outline" fill="#A5ABB6" stroke="none" d="M 25 0.5 L 52.167388719313806 0.5 L 52.167388719313806 -0.5 L 25 -0.5 Z M 85.7298887193138 0.5 L 112.89727743862761 0.5 L 112.89727743862761 3.5 L 119.89727743862761 0 L 112.89727743862761 -3.5 L 112.89727743862761 -0.5 L 85.7298887193138 -0.5 Z"/><text text-anchor="middle" pointer-events="none" font-size="8px" fill="#000000" x="68.9486387193138" y="3" transform="rotate(180 68.9486387193138 0)" font-family="Helvetica Neue, Helvetica, Arial, sans-serif">READS</text></g><g class="relationship" transform="translate(46.06607721029394 263.058544193104) rotate(464.7703087369449)"><path class="b-outline" fill="#A5ABB6" stroke="none" d="M 25 0.5 L 36.58642860442575 0.5 L 36.58642860442575 -0.5 L 25 -0.5 Z M 70.14892860442575 0.5 L 81.7353572088515 0.5 L 81.7353572088515 3.5 L 88.7353572088515 0 L 81.7353572088515 -3.5 L 81.7353572088515 -0.5 L 70.14892860442575 -0.5 Z"/><text text-anchor="middle" pointer-events="none" font-size="8px" fill="#000000" x="53.36767860442575" y="3" transform="rotate(180 53.36767860442575 0)" font-family="Helvetica Neue, Helvetica, Arial, sans-serif">READS</text></g><g class="relationship" transform="translate(46.06607721029394 263.058544193104) rotate(388.15929999964476)"><path class="b-outline" fill="#A5ABB6" stroke="none" d="M 25 0.5 L 68.83366390828638 0.5 L 68.83366390828638 -0.5 L 25 -0.5 Z M 102.39616390828638 0.5 L 146.22982781657277 0.5 L 146.22982781657277 3.5 L 153.22982781657277 0 L 146.22982781657277 -3.5 L 146.22982781657277 -0.5 L 102.39616390828638 -0.5 Z"/><text text-anchor="middle" pointer-events="none" font-size="8px" fill="#000000" x="85.61491390828638" y="3" font-family="Helvetica Neue, Helvetica, Arial, sans-serif">READS</text></g><g class="relationship" transform="translate(46.06607721029394 263.058544193104) rotate(422.1025822433109)"><path class="b-outline" fill="#A5ABB6" stroke="none" d="M 25 0.5 L 52.97752651718585 0.5 L 52.97752651718585 -0.5 L 25 -0.5 Z M 86.54002651718585 0.5 L 114.5175530343717 0.5 L 114.5175530343717 3.5 L 121.5175530343717 0 L 114.5175530343717 -3.5 L 114.5175530343717 -0.5 L 86.54002651718585 -0.5 Z"/><text text-anchor="middle" pointer-events="none" font-size="8px" fill="#000000" x="69.75877651718585" y="3" font-family="Helvetica Neue, Helvetica, Arial, sans-serif">READS</text></g><g class="relationship" transform="translate(-200.63679687669142 -379.42822773596913) rotate(412.07836042159914)"><path class="b-outline" fill="#A5ABB6" stroke="none" d="M 25 0.5 L 61.85640562859781 0.5 L 61.85640562859781 -0.5 L 25 -0.5 Z M 95.41890562859781 0.5 L 132.27531125719563 0.5 L 132.27531125719563 3.5 L 139.27531125719563 0 L 132.27531125719563 -3.5 L 132.27531125719563 -0.5 L 95.41890562859781 -0.5 Z"/><text text-anchor="middle" pointer-events="none" font-size="8px" fill="#000000" x="78.63765562859781" y="3" font-family="Helvetica Neue, Helvetica, Arial, sans-serif">READS</text></g><g class="relationship" transform="translate(-200.63679687669142 -379.42822773596913) rotate(449.2399444462077)"><path class="b-outline" fill="#A5ABB6" stroke="none" d="M 25 0.5 L 46.17203010753387 0.5 L 46.17203010753387 -0.5 L 25 -0.5 Z M 79.73453010753387 0.5 L 100.90656021506774 0.5 L 100.90656021506774 3.5 L 107.90656021506774 0 L 100.90656021506774 -3.5 L 100.90656021506774 -0.5 L 79.73453010753387 -0.5 Z"/><text text-anchor="middle" pointer-events="none" font-size="8px" fill="#000000" x="62.95328010753387" y="3" font-family="Helvetica Neue, Helvetica, Arial, sans-serif">READS</text></g><g class="relationship" transform="translate(-200.63679687669142 -379.42822773596913) rotate(484.3871142553802)"><path class="b-outline" fill="#A5ABB6" stroke="none" d="M 25 0.5 L 65.84346658222914 0.5 L 65.84346658222914 -0.5 L 25 -0.5 Z M 99.40596658222914 0.5 L 140.24943316445828 0.5 L 140.24943316445828 3.5 L 147.24943316445828 0 L 140.24943316445828 -3.5 L 140.24943316445828 -0.5 L 99.40596658222914 -0.5 Z"/><text text-anchor="middle" pointer-events="none" font-size="8px" fill="#000000" x="82.62471658222914" y="3" transform="rotate(180 82.62471658222914 0)" font-family="Helvetica Neue, Helvetica, Arial, sans-serif">READS</text></g><g class="relationship" transform="translate(-506.0453921823009 -14.225728026144383) rotate(255.24921462994905)"><path class="b-outline" fill="#A5ABB6" stroke="none" d="M 25 0.5 L 52.152460959253375 0.5 L 52.152460959253375 -0.5 L 25 -0.5 Z M 85.71496095925337 0.5 L 112.86742191850675 0.5 L 112.86742191850675 3.5 L 119.86742191850675 0 L 112.86742191850675 -3.5 L 112.86742191850675 -0.5 L 85.71496095925337 -0.5 Z"/><text text-anchor="middle" pointer-events="none" font-size="8px" fill="#000000" x="68.93371095925337" y="3" transform="rotate(180 68.93371095925337 0)" font-family="Helvetica Neue, Helvetica, Arial, sans-serif">READS</text></g><g class="relationship" transform="translate(-506.0453921823009 -14.225728026144383) rotate(481.1803754966895)"><path class="b-outline" fill="#A5ABB6" stroke="none" d="M 25 0.5 L 51.69127338580539 0.5 L 51.69127338580539 -0.5 L 25 -0.5 Z M 85.25377338580539 0.5 L 111.94504677161078 0.5 L 111.94504677161078 3.5 L 118.94504677161078 0 L 111.94504677161078 -3.5 L 111.94504677161078 -0.5 L 85.25377338580539 -0.5 Z"/><text text-anchor="middle" pointer-events="none" font-size="8px" fill="#000000" x="68.47252338580539" y="3" transform="rotate(180 68.47252338580539 0)" font-family="Helvetica Neue, Helvetica, Arial, sans-serif">READS</text></g><g class="relationship" transform="translate(-506.0453921823009 -14.225728026144383) rotate(433.462068420386)"><path class="b-outline" fill="#A5ABB6" stroke="none" d="M 25 0.5 L 53.414996316226166 0.5 L 53.414996316226166 -0.5 L 25 -0.5 Z M 86.97749631622617 0.5 L 115.39249263245233 0.5 L 115.39249263245233 3.5 L 122.39249263245233 0 L 115.39249263245233 -3.5 L 115.39249263245233 -0.5 L 86.97749631622617 -0.5 Z"/><text text-anchor="middle" pointer-events="none" font-size="8px" fill="#000000" x="70.19624631622617" y="3" font-family="Helvetica Neue, Helvetica, Arial, sans-serif">READS</text></g><g class="relationship" transform="translate(-223.66251047237316 184.0944524064471) rotate(276.47952079109484)"><path class="b-outline" fill="#A5ABB6" stroke="none" d="M 25 0.5 L 47.37066028728468 0.5 L 47.37066028728468 -0.5 L 25 -0.5 Z M 80.93316028728468 0.5 L 103.30382057456936 0.5 L 103.30382057456936 3.5 L 110.30382057456936 0 L 103.30382057456936 -3.5 L 103.30382057456936 -0.5 L 80.93316028728468 -0.5 Z"/><text text-anchor="middle" pointer-events="none" font-size="8px" fill="#000000" x="64.15191028728468" y="3" font-family="Helvetica Neue, Helvetica, Arial, sans-serif">READS</text></g><g class="relationship" transform="translate(-223.66251047237316 184.0944524064471) rotate(241.73691789642288)"><path class="b-outline" fill="#A5ABB6" stroke="none" d="M 25 0.5 L 66.45362668947561 0.5 L 66.45362668947561 -0.5 L 25 -0.5 Z M 100.01612668947561 0.5 L 141.46975337895122 0.5 L 141.46975337895122 3.5 L 148.46975337895122 0 L 141.46975337895122 -3.5 L 141.46975337895122 -0.5 L 100.01612668947561 -0.5 Z"/><text text-anchor="middle" pointer-events="none" font-size="8px" fill="#000000" x="83.23487668947561" y="3" transform="rotate(180 83.23487668947561 0)" font-family="Helvetica Neue, Helvetica, Arial, sans-serif">READS</text></g><g class="relationship" transform="translate(-223.66251047237316 184.0944524064471) rotate(310.71983312186717)"><path class="b-outline" fill="#A5ABB6" stroke="none" d="M 25 0.5 L 67.37883467191926 0.5 L 67.37883467191926 -0.5 L 25 -0.5 Z M 100.94133467191926 0.5 L 143.32016934383853 0.5 L 143.32016934383853 3.5 L 150.32016934383853 0 L 143.32016934383853 -3.5 L 143.32016934383853 -0.5 L 100.94133467191926 -0.5 Z"/><text text-anchor="middle" pointer-events="none" font-size="8px" fill="#000000" x="84.16008467191926" y="3" font-family="Helvetica Neue, Helvetica, Arial, sans-serif">READS</text></g><g class="relationship" transform="translate(366.5980661643808 79.35089340303153) rotate(511.22995772458484)"><path class="b-outline" fill="#A5ABB6" stroke="none" d="M 25 0.5 L 44.858532694757656 0.5 L 44.858532694757656 -0.5 L 25 -0.5 Z M 78.42103269475766 0.5 L 98.27956538951531 0.5 L 98.27956538951531 3.5 L 105.27956538951531 0 L 98.27956538951531 -3.5 L 98.27956538951531 -0.5 L 78.42103269475766 -0.5 Z"/><text text-anchor="middle" pointer-events="none" font-size="8px" fill="#000000" x="61.639782694757656" y="3" transform="rotate(180 61.639782694757656 0)" font-family="Helvetica Neue, Helvetica, Arial, sans-serif">READS</text></g><g class="relationship" transform="translate(366.5980661643808 79.35089340303153) rotate(473.2748600089698)"><path class="b-outline" fill="#A5ABB6" stroke="none" d="M 25 0.5 L 60.47713795128003 0.5 L 60.47713795128003 -0.5 L 25 -0.5 Z M 94.03963795128003 0.5 L 129.51677590256006 0.5 L 129.51677590256006 3.5 L 136.51677590256006 0 L 129.51677590256006 -3.5 L 129.51677590256006 -0.5 L 94.03963795128003 -0.5 Z"/><text text-anchor="middle" pointer-events="none" font-size="8px" fill="#000000" x="77.25838795128003" y="3" transform="rotate(180 77.25838795128003 0)" font-family="Helvetica Neue, Helvetica, Arial, sans-serif">READS</text></g><g class="relationship" transform="translate(366.5980661643808 79.35089340303153) rotate(185.3565386513859)"><path class="b-outline" fill="#A5ABB6" stroke="none" d="M 25 0.5 L 67.19862962218625 0.5 L 67.19862962218625 -0.5 L 25 -0.5 Z M 100.76112962218625 0.5 L 142.9597592443725 0.5 L 142.9597592443725 3.5 L 149.9597592443725 0 L 142.9597592443725 -3.5 L 142.9597592443725 -0.5 L 100.76112962218625 -0.5 Z"/><text text-anchor="middle" pointer-events="none" font-size="8px" fill="#000000" x="83.97987962218625" y="3" transform="rotate(180 83.97987962218625 0)" font-family="Helvetica Neue, Helvetica, Arial, sans-serif">READS</text></g><g class="relationship" transform="translate(-192.35870574594907 -100.55985690023054) rotate(456.09309889521825)"><path class="b-outline" fill="#A5ABB6" stroke="none" d="M 25 0.5 L 55.25284962048205 0.5 L 55.25284962048205 -0.5 L 25 -0.5 Z M 88.81534962048205 0.5 L 119.0681992409641 0.5 L 119.0681992409641 3.5 L 126.0681992409641 0 L 119.0681992409641 -3.5 L 119.0681992409641 -0.5 L 88.81534962048205 -0.5 Z"/><text text-anchor="middle" pointer-events="none" font-size="8px" fill="#000000" x="72.03409962048205" y="3" transform="rotate(180 72.03409962048205 0)" font-family="Helvetica Neue, Helvetica, Arial, sans-serif">READS</text></g><g class="relationship" transform="translate(-192.35870574594907 -100.55985690023054) rotate(490.7058449709443)"><path class="b-outline" fill="#A5ABB6" stroke="none" d="M 25 0.5 L 66.69326577644547 0.5 L 66.69326577644547 -0.5 L 25 -0.5 Z M 100.25576577644547 0.5 L 141.94903155289094 0.5 L 141.94903155289094 3.5 L 148.94903155289094 0 L 141.94903155289094 -3.5 L 141.94903155289094 -0.5 L 100.25576577644547 -0.5 Z"/><text text-anchor="middle" pointer-events="none" font-size="8px" fill="#000000" x="83.47451577644547" y="3" transform="rotate(180 83.47451577644547 0)" font-family="Helvetica Neue, Helvetica, Arial, sans-serif">READS</text></g><g class="relationship" transform="translate(-192.35870574594907 -100.55985690023054) rotate(421.30802741015566)"><path class="b-outline" fill="#A5ABB6" stroke="none" d="M 25 0.5 L 66.22999403418021 0.5 L 66.22999403418021 -0.5 L 25 -0.5 Z M 99.79249403418021 0.5 L 141.02248806836042 0.5 L 141.02248806836042 3.5 L 148.02248806836042 0 L 141.02248806836042 -3.5 L 141.02248806836042 -0.5 L 99.79249403418021 -0.5 Z"/><text text-anchor="middle" pointer-events="none" font-size="8px" fill="#000000" x="83.01124403418021" y="3" font-family="Helvetica Neue, Helvetica, Arial, sans-serif">READS</text></g><g class="relationship" transform="translate(-192.35870574594907 -100.55985690023054) rotate(301.8347983603625)"><path class="b-outline" fill="#A5ABB6" stroke="none" d="M 25 0.5 L 67.57438355345005 0.5 L 67.57438355345005 -0.5 L 25 -0.5 Z M 101.13688355345005 0.5 L 143.7112671069001 0.5 L 143.7112671069001 3.5 L 150.7112671069001 0 L 143.7112671069001 -3.5 L 143.7112671069001 -0.5 L 101.13688355345005 -0.5 Z"/><text text-anchor="middle" pointer-events="none" font-size="8px" fill="#000000" x="84.35563355345005" y="3" font-family="Helvetica Neue, Helvetica, Arial, sans-serif">READS</text></g><g class="relationship" transform="translate(-192.35870574594907 -100.55985690023054) rotate(267.4444765706372)"><path class="b-outline" fill="#A5ABB6" stroke="none" d="M 25 0.5 L 52.77816107806757 0.5 L 52.77816107806757 -0.5 L 25 -0.5 Z M 86.34066107806757 0.5 L 114.11882215613514 0.5 L 114.11882215613514 3.5 L 121.11882215613514 0 L 114.11882215613514 -3.5 L 114.11882215613514 -0.5 L 86.34066107806757 -0.5 Z"/><text text-anchor="middle" pointer-events="none" font-size="8px" fill="#000000" x="69.55941107806757" y="3" transform="rotate(180 69.55941107806757 0)" font-family="Helvetica Neue, Helvetica, Arial, sans-serif">READS</text></g><g class="relationship" transform="translate(-192.35870574594907 -100.55985690023054) rotate(232.32854096334222)"><path class="b-outline" fill="#A5ABB6" stroke="none" d="M 25 0.5 L 66.08407512364252 0.5 L 66.08407512364252 -0.5 L 25 -0.5 Z M 99.64657512364252 0.5 L 140.73065024728504 0.5 L 140.73065024728504 3.5 L 147.73065024728504 0 L 140.73065024728504 -3.5 L 140.73065024728504 -0.5 L 99.64657512364252 -0.5 Z"/><text text-anchor="middle" pointer-events="none" font-size="8px" fill="#000000" x="82.86532512364252" y="3" transform="rotate(180 82.86532512364252 0)" font-family="Helvetica Neue, Helvetica, Arial, sans-serif">READS</text></g></g><g class="layer nodes"><g class="node" aria-label="graph-node0" transform="translate(139.72723898267873,229.1080582137244)"><circle class="b-outline" cx="0" cy="0" r="25" fill="#68BDF6" stroke="#5CA8DB" stroke-width="2px"/><text class="caption" text-anchor="middle" pointer-events="none" x="0" y="5" font-size="10px" fill="#FFFFFF" font-family="Helvetica Neue, Helvetica, Arial, sans-serif"> Ivy Walker</text></g><g class="node" aria-label="graph-node32" transform="translate(17.06985002516811,373.0355885635253)"><circle class="b-outline" cx="0" cy="0" r="25" fill="#57C7E3" stroke="#23b3d7" stroke-width="2px"/><text class="caption" text-anchor="middle" pointer-events="none" x="0" y="0" font-size="10px" fill="#2A2C34" font-family="Helvetica Neue, Helvetica, Arial, sans-serif"> Lord of</text><text class="caption" text-anchor="middle" pointer-events="none" x="0" y="10" font-size="10px" fill="#2A2C34" font-family="Helvetica Neue, Helvetica, Arial, sans-serif"> Ri…</text></g><g class="node" aria-label="graph-node38" transform="translate(203.20042756151014,347.1695866502417)"><circle class="b-outline" cx="0" cy="0" r="25" fill="#57C7E3" stroke="#23b3d7" stroke-width="2px"/><text class="caption" text-anchor="middle" pointer-events="none" x="0" y="0" font-size="10px" fill="#2A2C34" font-family="Helvetica Neue, Helvetica, Arial, sans-serif"> Lord of</text><text class="caption" text-anchor="middle" pointer-events="none" x="0" y="10" font-size="10px" fill="#2A2C34" font-family="Helvetica Neue, Helvetica, Arial, sans-serif"> Ri…</text></g><g class="node" aria-label="graph-node61" transform="translate(114.6201727059453,392.5488115414767)"><circle class="b-outline" cx="0" cy="0" r="25" fill="#57C7E3" stroke="#23b3d7" stroke-width="2px"/><text class="caption" text-anchor="middle" pointer-events="none" x="0" y="0" font-size="10px" fill="#2A2C34" font-family="Helvetica Neue, Helvetica, Arial, sans-serif"> Lord of</text><text class="caption" text-anchor="middle" pointer-events="none" x="0" y="10" font-size="10px" fill="#2A2C34" font-family="Helvetica Neue, Helvetica, Arial, sans-serif"> Ri…</text></g><g class="node" aria-label="graph-node1" transform="translate(366.5980661643808,79.35089340303153)"><circle class="b-outline" cx="0" cy="0" r="25" fill="#68BDF6" stroke="#5CA8DB" stroke-width="2px"/><text class="caption" text-anchor="middle" pointer-events="none" x="0" y="0" font-size="10px" fill="#FFFFFF" font-family="Helvetica Neue, Helvetica, Arial, sans-serif"> Olivia</text><text class="caption" text-anchor="middle" pointer-events="none" x="0" y="10" font-size="10px" fill="#FFFFFF" font-family="Helvetica Neue, Helvetica, Arial, sans-serif"> Adams</text></g><g class="node" aria-label="graph-node33" transform="translate(468.6434160065302,186.08218077627228)"><circle class="b-outline" cx="0" cy="0" r="25" fill="#57C7E3" stroke="#23b3d7" stroke-width="2px"/><text class="caption" text-anchor="middle" pointer-events="none" x="0" y="0" font-size="10px" fill="#2A2C34" font-family="Helvetica Neue, Helvetica, Arial, sans-serif"> The</text><text class="caption" text-anchor="middle" pointer-events="none" x="0" y="10" font-size="10px" fill="#2A2C34" font-family="Helvetica Neue, Helvetica, Arial, sans-serif"> Chroni…</text></g><g class="node" aria-label="graph-node2" transform="translate(382.0657031657419,-224.07934571604676)"><circle class="b-outline" cx="0" cy="0" r="25" fill="#68BDF6" stroke="#5CA8DB" stroke-width="2px"/><text class="caption" text-anchor="middle" pointer-events="none" x="0" y="0" font-size="10px" fill="#FFFFFF" font-family="Helvetica Neue, Helvetica, Arial, sans-serif"> Alice</text><text class="caption" text-anchor="middle" pointer-events="none" x="0" y="10" font-size="10px" fill="#FFFFFF" font-family="Helvetica Neue, Helvetica, Arial, sans-serif"> Black</text></g><g class="node" aria-label="graph-node34" transform="translate(464.01318499412446,-104.22602499192439)"><circle class="b-outline" cx="0" cy="0" r="25" fill="#57C7E3" stroke="#23b3d7" stroke-width="2px"/><text class="caption" text-anchor="middle" pointer-events="none" x="0" y="0" font-size="10px" fill="#2A2C34" font-family="Helvetica Neue, Helvetica, Arial, sans-serif"> The</text><text class="caption" text-anchor="middle" pointer-events="none" x="0" y="10" font-size="10px" fill="#2A2C34" font-family="Helvetica Neue, Helvetica, Arial, sans-serif"> Hand…</text></g><g class="node" aria-label="graph-node48" transform="translate(526.0968243104533,-233.5140425495816)"><circle class="b-outline" cx="0" cy="0" r="25" fill="#57C7E3" stroke="#23b3d7" stroke-width="2px"/><text class="caption" text-anchor="middle" pointer-events="none" x="0" y="0" font-size="10px" fill="#2A2C34" font-family="Helvetica Neue, Helvetica, Arial, sans-serif"> The</text><text class="caption" text-anchor="middle" pointer-events="none" x="0" y="10" font-size="10px" fill="#2A2C34" font-family="Helvetica Neue, Helvetica, Arial, sans-serif"> Hand…</text></g><g class="node" aria-label="graph-node3" transform="translate(-192.35870574594907,-100.55985690023054)"><circle class="b-outline" cx="0" cy="0" r="25" fill="#68BDF6" stroke="#5CA8DB" stroke-width="2px"/><text class="caption" text-anchor="middle" pointer-events="none" x="0" y="0" font-size="10px" fill="#FFFFFF" font-family="Helvetica Neue, Helvetica, Arial, sans-serif"> Diana</text><text class="caption" text-anchor="middle" pointer-events="none" x="0" y="10" font-size="10px" fill="#FFFFFF" font-family="Helvetica Neue, Helvetica, Arial, sans-serif"> King</text></g><g class="node" aria-label="graph-node35" transform="translate(-50.06066963952117,-137.39769821487974)"><circle class="b-outline" cx="0" cy="0" r="25" fill="#57C7E3" stroke="#23b3d7" stroke-width="2px"/><text class="caption" text-anchor="middle" pointer-events="none" x="0" y="0" font-size="10px" fill="#2A2C34" font-family="Helvetica Neue, Helvetica, Arial, sans-serif"> The</text><text class="caption" text-anchor="middle" pointer-events="none" x="0" y="10" font-size="10px" fill="#2A2C34" font-family="Helvetica Neue, Helvetica, Arial, sans-serif"> Shining</text></g><g class="node" aria-label="graph-node36" transform="translate(252.4004122047989,142.05385177190428)"><circle class="b-outline" cx="0" cy="0" r="25" fill="#57C7E3" stroke="#23b3d7" stroke-width="2px"/><text class="caption" text-anchor="middle" pointer-events="none" x="0" y="-5" font-size="10px" fill="#2A2C34" font-family="Helvetica Neue, Helvetica, Arial, sans-serif"> The</text><text class="caption" text-anchor="middle" pointer-events="none" x="0" y="5" font-size="10px" fill="#2A2C34" font-family="Helvetica Neue, Helvetica, Arial, sans-serif"> Picture of</text><text class="caption" text-anchor="middle" pointer-events="none" x="0" y="15" font-size="10px" fill="#2A2C34" font-family="Helvetica Neue, Helvetica, Arial, sans-serif"> Dori</text></g><g class="node" aria-label="graph-node42" transform="translate(302.7759279643314,227.7234096367721)"><circle class="b-outline" cx="0" cy="0" r="25" fill="#57C7E3" stroke="#23b3d7" stroke-width="2px"/><text class="caption" text-anchor="middle" pointer-events="none" x="0" y="-5" font-size="10px" fill="#2A2C34" font-family="Helvetica Neue, Helvetica, Arial, sans-serif"> The</text><text class="caption" text-anchor="middle" pointer-events="none" x="0" y="5" font-size="10px" fill="#2A2C34" font-family="Helvetica Neue, Helvetica, Arial, sans-serif"> Picture of</text><text class="caption" text-anchor="middle" pointer-events="none" x="0" y="15" font-size="10px" fill="#2A2C34" font-family="Helvetica Neue, Helvetica, Arial, sans-serif"> Dori</text></g><g class="node" aria-label="graph-node45" transform="translate(192.40234508909623,63.01785590505064)"><circle class="b-outline" cx="0" cy="0" r="25" fill="#57C7E3" stroke="#23b3d7" stroke-width="2px"/><text class="caption" text-anchor="middle" pointer-events="none" x="0" y="-5" font-size="10px" fill="#2A2C34" font-family="Helvetica Neue, Helvetica, Arial, sans-serif"> The</text><text class="caption" text-anchor="middle" pointer-events="none" x="0" y="5" font-size="10px" fill="#2A2C34" font-family="Helvetica Neue, Helvetica, Arial, sans-serif"> Picture of</text><text class="caption" text-anchor="middle" pointer-events="none" x="0" y="15" font-size="10px" fill="#2A2C34" font-family="Helvetica Neue, Helvetica, Arial, sans-serif"> Dori</text></g><g class="node" aria-label="graph-node37" transform="translate(368.67108139717993,-367.9325029415147)"><circle class="b-outline" cx="0" cy="0" r="25" fill="#57C7E3" stroke="#23b3d7" stroke-width="2px"/><text class="caption" text-anchor="middle" pointer-events="none" x="0" y="0" font-size="10px" fill="#2A2C34" font-family="Helvetica Neue, Helvetica, Arial, sans-serif"> To Kill a</text><text class="caption" text-anchor="middle" pointer-events="none" x="0" y="10" font-size="10px" fill="#2A2C34" font-family="Helvetica Neue, Helvetica, Arial, sans-serif"> Mocki…</text></g><g class="node" aria-label="graph-node63" transform="translate(255.1740821208297,-294.0345993981042)"><circle class="b-outline" cx="0" cy="0" r="25" fill="#57C7E3" stroke="#23b3d7" stroke-width="2px"/><text class="caption" text-anchor="middle" pointer-events="none" x="0" y="0" font-size="10px" fill="#2A2C34" font-family="Helvetica Neue, Helvetica, Arial, sans-serif"> To Kill a</text><text class="caption" text-anchor="middle" pointer-events="none" x="0" y="10" font-size="10px" fill="#2A2C34" font-family="Helvetica Neue, Helvetica, Arial, sans-serif"> Mocki…</text></g><g class="node" aria-label="graph-node4" transform="translate(46.06607721029394,263.058544193104)"><circle class="b-outline" cx="0" cy="0" r="25" fill="#68BDF6" stroke="#5CA8DB" stroke-width="2px"/><text class="caption" text-anchor="middle" pointer-events="none" x="0" y="0" font-size="10px" fill="#FFFFFF" font-family="Helvetica Neue, Helvetica, Arial, sans-serif"> James</text><text class="caption" text-anchor="middle" pointer-events="none" x="0" y="10" font-size="10px" fill="#FFFFFF" font-family="Helvetica Neue, Helvetica, Arial, sans-serif"> Brown</text></g><g class="node" aria-label="graph-node5" transform="translate(-200.63679687669142,-379.42822773596913)"><circle class="b-outline" cx="0" cy="0" r="25" fill="#68BDF6" stroke="#5CA8DB" stroke-width="2px"/><text class="caption" text-anchor="middle" pointer-events="none" x="0" y="0" font-size="10px" fill="#FFFFFF" font-family="Helvetica Neue, Helvetica, Arial, sans-serif"> Zane</text><text class="caption" text-anchor="middle" pointer-events="none" x="0" y="10" font-size="10px" fill="#FFFFFF" font-family="Helvetica Neue, Helvetica, Arial, sans-serif"> Wright</text></g><g class="node" aria-label="graph-node39" transform="translate(-99.67595384483087,-249.83931593042723)"><circle class="b-outline" cx="0" cy="0" r="25" fill="#57C7E3" stroke="#23b3d7" stroke-width="2px"/><text class="caption" text-anchor="middle" pointer-events="none" x="0" y="0" font-size="10px" fill="#2A2C34" font-family="Helvetica Neue, Helvetica, Arial, sans-serif"> The</text><text class="caption" text-anchor="middle" pointer-events="none" x="0" y="10" font-size="10px" fill="#2A2C34" font-family="Helvetica Neue, Helvetica, Arial, sans-serif"> Hobbit</text></g><g class="node" aria-label="graph-node60" transform="translate(-198.87378034347665,-246.533361315535)"><circle class="b-outline" cx="0" cy="0" r="25" fill="#57C7E3" stroke="#23b3d7" stroke-width="2px"/><text class="caption" text-anchor="middle" pointer-events="none" x="0" y="0" font-size="10px" fill="#2A2C34" font-family="Helvetica Neue, Helvetica, Arial, sans-serif"> The</text><text class="caption" text-anchor="middle" pointer-events="none" x="0" y="10" font-size="10px" fill="#2A2C34" font-family="Helvetica Neue, Helvetica, Arial, sans-serif"> Hobbit</text></g><g class="node" aria-label="graph-node79" transform="translate(-297.92007671420413,-237.28101288624592)"><circle class="b-outline" cx="0" cy="0" r="25" fill="#57C7E3" stroke="#23b3d7" stroke-width="2px"/><text class="caption" text-anchor="middle" pointer-events="none" x="0" y="0" font-size="10px" fill="#2A2C34" font-family="Helvetica Neue, Helvetica, Arial, sans-serif"> The</text><text class="caption" text-anchor="middle" pointer-events="none" x="0" y="10" font-size="10px" fill="#2A2C34" font-family="Helvetica Neue, Helvetica, Arial, sans-serif"> Hobbit</text></g><g class="node" aria-label="graph-node6" transform="translate(-506.0453921823009,-14.225728026144383)"><circle class="b-outline" cx="0" cy="0" r="25" fill="#68BDF6" stroke="#5CA8DB" stroke-width="2px"/><text class="caption" text-anchor="middle" pointer-events="none" x="0" y="5" font-size="10px" fill="#FFFFFF" font-family="Helvetica Neue, Helvetica, Arial, sans-serif"> Jack King</text></g><g class="node" aria-label="graph-node40" transform="translate(-542.9308403328274,-154.3186744868762)"><circle class="b-outline" cx="0" cy="0" r="25" fill="#57C7E3" stroke="#23b3d7" stroke-width="2px"/><text class="caption" text-anchor="middle" pointer-events="none" x="0" y="-5" font-size="10px" fill="#2A2C34" font-family="Helvetica Neue, Helvetica, Arial, sans-serif"> Gone</text><text class="caption" text-anchor="middle" pointer-events="none" x="0" y="5" font-size="10px" fill="#2A2C34" font-family="Helvetica Neue, Helvetica, Arial, sans-serif"> with the</text><text class="caption" text-anchor="middle" pointer-events="none" x="0" y="15" font-size="10px" fill="#2A2C34" font-family="Helvetica Neue, Helvetica, Arial, sans-serif"> Wind</text></g><g class="node" aria-label="graph-node50" transform="translate(-580.5706379345444,108.92525343827158)"><circle class="b-outline" cx="0" cy="0" r="25" fill="#57C7E3" stroke="#23b3d7" stroke-width="2px"/><text class="caption" text-anchor="middle" pointer-events="none" x="0" y="-5" font-size="10px" fill="#2A2C34" font-family="Helvetica Neue, Helvetica, Arial, sans-serif"> Gone</text><text class="caption" text-anchor="middle" pointer-events="none" x="0" y="5" font-size="10px" fill="#2A2C34" font-family="Helvetica Neue, Helvetica, Arial, sans-serif"> with the</text><text class="caption" text-anchor="middle" pointer-events="none" x="0" y="15" font-size="10px" fill="#2A2C34" font-family="Helvetica Neue, Helvetica, Arial, sans-serif"> Wind</text></g><g class="node" aria-label="graph-node71" transform="translate(-464.0901116725016,127.06935795263824)"><circle class="b-outline" cx="0" cy="0" r="25" fill="#57C7E3" stroke="#23b3d7" stroke-width="2px"/><text class="caption" text-anchor="middle" pointer-events="none" x="0" y="-5" font-size="10px" fill="#2A2C34" font-family="Helvetica Neue, Helvetica, Arial, sans-serif"> Gone</text><text class="caption" text-anchor="middle" pointer-events="none" x="0" y="5" font-size="10px" fill="#2A2C34" font-family="Helvetica Neue, Helvetica, Arial, sans-serif"> with the</text><text class="caption" text-anchor="middle" pointer-events="none" x="0" y="15" font-size="10px" fill="#2A2C34" font-family="Helvetica Neue, Helvetica, Arial, sans-serif"> Wind</text></g><g class="node" aria-label="graph-node7" transform="translate(-223.66251047237316,184.0944524064471)"><circle class="b-outline" cx="0" cy="0" r="25" fill="#68BDF6" stroke="#5CA8DB" stroke-width="2px"/><text class="caption" text-anchor="middle" pointer-events="none" x="0" y="0" font-size="10px" fill="#FFFFFF" font-family="Helvetica Neue, Helvetica, Arial, sans-serif"> Cameron</text><text class="caption" text-anchor="middle" pointer-events="none" x="0" y="10" font-size="10px" fill="#FFFFFF" font-family="Helvetica Neue, Helvetica, Arial, sans-serif"> Harris</text></g><g class="node" aria-label="graph-node41" transform="translate(-208.39373484399607,49.654918217706566)"><circle class="b-outline" cx="0" cy="0" r="25" fill="#57C7E3" stroke="#23b3d7" stroke-width="2px"/><text class="caption" text-anchor="middle" pointer-events="none" x="0" y="-5" font-size="10px" fill="#2A2C34" font-family="Helvetica Neue, Helvetica, Arial, sans-serif"> The</text><text class="caption" text-anchor="middle" pointer-events="none" x="0" y="5" font-size="10px" fill="#2A2C34" font-family="Helvetica Neue, Helvetica, Arial, sans-serif"> Grapes of</text><text class="caption" text-anchor="middle" pointer-events="none" x="0" y="15" font-size="10px" fill="#2A2C34" font-family="Helvetica Neue, Helvetica, Arial, sans-serif"> Wrath</text></g><g class="node" aria-label="graph-node58" transform="translate(-305.8040442506451,31.30530434315313)"><circle class="b-outline" cx="0" cy="0" r="25" fill="#57C7E3" stroke="#23b3d7" stroke-width="2px"/><text class="caption" text-anchor="middle" pointer-events="none" x="0" y="-5" font-size="10px" fill="#2A2C34" font-family="Helvetica Neue, Helvetica, Arial, sans-serif"> The</text><text class="caption" text-anchor="middle" pointer-events="none" x="0" y="5" font-size="10px" fill="#2A2C34" font-family="Helvetica Neue, Helvetica, Arial, sans-serif"> Grapes of</text><text class="caption" text-anchor="middle" pointer-events="none" x="0" y="15" font-size="10px" fill="#2A2C34" font-family="Helvetica Neue, Helvetica, Arial, sans-serif"> Wrath</text></g><g class="node" aria-label="graph-node78" transform="translate(-109.29050534210623,51.21779448175958)"><circle class="b-outline" cx="0" cy="0" r="25" fill="#57C7E3" stroke="#23b3d7" stroke-width="2px"/><text class="caption" text-anchor="middle" pointer-events="none" x="0" y="-5" font-size="10px" fill="#2A2C34" font-family="Helvetica Neue, Helvetica, Arial, sans-serif"> The</text><text class="caption" text-anchor="middle" pointer-events="none" x="0" y="5" font-size="10px" fill="#2A2C34" font-family="Helvetica Neue, Helvetica, Arial, sans-serif"> Grapes of</text><text class="caption" text-anchor="middle" pointer-events="none" x="0" y="15" font-size="10px" fill="#2A2C34" font-family="Helvetica Neue, Helvetica, Arial, sans-serif"> Wrath</text></g></g></svg>